<svg xmlns="http://www.w3.org/2000/svg" viewBox="0 0 578.2 238.85">
    <defs>
        <style>.cls-1{fill:#AD764A;}.cls-2{fill:#AD764A;}.cls-3{fill:none;}</style>
    </defs>
    <g id="Ebene_2" data-name="Ebene 2">
        <g id="Ebene_1-2" data-name="Ebene 1">
            <path class="cls-1" d="M26.81,58.43c3.72-3.93,7-6.89,12.43-6.89,12.55,0,13.11,15.2,13.11,25.75,0,7.75-.85,23.65-12.84,23.65-5.85,0-9.12-3.24-12.7-6.48ZM0,146.11H26.81V109.66c9.43,9.43,17,11,23.69,11C75,120.64,79.74,96.43,79.74,75c0-19-4.71-43.2-30-43.2-10.54,0-16.12,4.79-23,10.54V33.81H0Z" />
            <path class="cls-1" d="M78.17,33.81h28.54L116,68.7c1.28,4.37,3.85,17,4.14,23.93h1.43A111.48,111.48,0,0,1,126,66.74l9.84-32.93h26.38l-29.66,87.67C129,132,123.82,147.1,99.29,147.1c-5.85,0-10.55-1.13-16.12-2.4l1.28-19.84A29.49,29.49,0,0,0,94.3,127c9.55,0,12.26-6.21,13.41-10.71Z" />
            <path class="cls-1" d="M168.34,33.81h26.82V47.46h.28c5.43-10.7,17.41-14.63,23.12-14.63a29.49,29.49,0,0,1,4.85.41V57c-1.58-.7-4-1.26-8.71-1.26-8.41,0-15.12,3.52-19.54,9.43v53.47H168.34Z" />
            <path class="cls-1" d="M260.35,100.37c-5,0-8.57-3.38-8.57-8.31,0-7,5.3-11.39,13.56-11.39,2.71,0,6.14.27,9.28.57V93.48C271.05,96.43,266.34,100.37,260.35,100.37ZM301,68.28c0-21.38-7.71-36.44-35.67-36.44-29.38,0-35.51,18.43-36.79,22.37L252.36,61c1-5.49,3.86-11.41,11.7-11.41,8.42,0,10.56,4.8,10.56,13v2.67c-2.85-.29-6.71-.57-10.13-.57-20.26,0-38.66,9.3-38.66,30.4,0,10.13,5.42,25.62,24.54,25.62,10.13,0,18.4-7.32,24.25-13H275c0,3.09.44,7.32.57,11h26c-.44-3.94-.57-9.84-.57-14.9Z" />
            <path class="cls-1" d="M315,33.81h26.83v11.4c9-9.72,16.81-13.37,25.09-13.37,12.14,0,18,6.06,20.7,13.37,7.12-6.06,15-13.37,28-13.37,21.25,0,21.25,16.88,21.25,26.87v60H410V66.74c0-6.34-.43-13.24-8.28-13.24-2.85,0-5.42.57-12.41,7.89v57.27H362.49V66.74c0-6.34-.42-13.24-8.28-13.24-2.84,0-5.4.57-12.39,7.89v57.27H315Z" />
            <path class="cls-1" d="M450.09,33.81h26.82v84.85H450.09Z" />
            <path class="cls-2" d="M450.09,0h26.82V26.83H450.09Z" />
            <path class="cls-3" d="M529.69,51.75c-12.55,0-13.12,15.15-13.12,25.67,0,7.73.86,23.58,12.83,23.58,5.85,0,9.14-3.24,12.7-6.47V58.62C538.4,54.69,535.12,51.75,529.69,51.75Z" />
            <path class="cls-1" d="M568.92,9.65V.38h0V0H542.1V16.25h0V42.62c-6.85-5.74-12.41-10.52-23-10.52-25.25,0-30,24.13-30,43.08,0,21.33,4.71,45.46,29.26,45.46,6.69,0,14.27-1.54,23.67-11v9h26.83V9.65ZM542.1,94.53c-3.56,3.23-6.85,6.47-12.7,6.47-12,0-12.83-15.85-12.83-23.58,0-10.52.57-25.67,13.12-25.67,5.43,0,8.71,2.94,12.41,6.87Z" />
            <path class="cls-2" d="M273.22,182.92q-.08,1.16-6.17,3c-2.59.76-4.34,1.28-5.24,1.53a32.47,32.47,0,0,1-2.7,8.76,33.24,33.24,0,0,1-7.35,11.06,18.33,18.33,0,0,1-12.84,5.38,3.73,3.73,0,0,1-3.3-1.46,6.72,6.72,0,0,1-1-3.92q0-3.06,8.62-11.44,8.28-8.07,13.35-10.53a7.42,7.42,0,0,0-.5-3,1.8,1.8,0,0,0-1.78-1.16q-5.49,0-12.84,8.3Q234.78,197,233,203.12q-.84,2.46-1.61,4.92-1.35,3.22-3.38,3.23a1.82,1.82,0,0,1-1.81-.93,5.65,5.65,0,0,1-.47-2.53v-1.15a10.19,10.19,0,0,1,.09-1.31l3.38-34.49q0-13.14.5-17.59c.4-1.23.82-2.46,1.27-3.69a5.05,5.05,0,0,1,.55-2.69c.37-.56,1.31-.84,2.83-.84s2.28,1.3,2.28,3.92a73.85,73.85,0,0,1-1.18,9.06,71.62,71.62,0,0,0-1.18,11.21,124.76,124.76,0,0,1-1,13.76q-1,8.67-1,10.52a53.36,53.36,0,0,1,8.7-10.52q7.78-7.45,14.12-7.46a6.14,6.14,0,0,1,4.47,2.27,6.83,6.83,0,0,1,2.12,4.65l5.28-1.58a16.8,16.8,0,0,1,4.43-.8A1.63,1.63,0,0,1,273.22,182.92Zm-20.53,15.75q1.44-2.85,2.41-5.23a10.76,10.76,0,0,0,1-3.53q-3,1.38-9.8,8.68t-6.85,8.6c0,1,.42,1.47,1.27,1.47,2.08,0,4.24-1,6.46-2.92A24.7,24.7,0,0,0,252.69,198.67Z" />
            <path class="cls-2" d="M322.57,189.37q0,1.15-7.69,9Q312.26,201,308.2,205a51.37,51.37,0,0,1-4.56,4.08,5.06,5.06,0,0,1-2.7,1.15c-1.64.15-2.72-.92-3.25-3.23a47.06,47.06,0,0,1-.81-10.06,69.84,69.84,0,0,1,.38-7.22c.26-2.41.55-4.92.89-7.53q-.84.77-6.25,8.18t-8.54,10.87a50.74,50.74,0,0,1-6.34,6.15,6.74,6.74,0,0,1-3.63,1.61c-1.41,0-2.49-1.25-3.25-3.77a33.39,33.39,0,0,1-1.14-9.52,43.25,43.25,0,0,1,.25-4.61q.76-7.06.76-7.84c.06-.61.09-1,.09-1.15a13.66,13.66,0,0,0-.34-2.46,13.39,13.39,0,0,1-.34-2.76,3.69,3.69,0,0,1,.76-2.54,4,4,0,0,1,3-.84,2,2,0,0,1,1.9,1.57,14.49,14.49,0,0,1,.55,4.5c0,1.38-.12,3.17-.34,5.37-.56,5.43-.85,8.71-.85,9.84a32.07,32.07,0,0,0,.85,8.52,100.94,100.94,0,0,0,6.93-8q3.29-4.06,9-11.36c2.08-2.67,4.16-5.35,6.25-8.07a6.74,6.74,0,0,1,2.15-2,5.79,5.79,0,0,1,2.58-.54q1.86,0,1.86,4.08c0,1.12-.31,4.07-.93,8.83a91.16,91.16,0,0,0-.93,9.91c0,.77,0,1.5,0,2.19s0,1.37,0,2c0,2.25.33,3.37,1,3.37.39,0,1.48-.89,3.25-2.68s3.6-3.64,5.45-5.53c2.76-3,4.62-4.95,5.58-5.92q2.37-2.46,3.55-2.46c1.13,0,1.69.38,1.69,1.15Z" />
            <path class="cls-2" d="M323.75,166.4a2.87,2.87,0,0,1-.93,2.08,3.13,3.13,0,0,1-2.28.92,2.82,2.82,0,0,1-2.7-3.3,2.71,2.71,0,0,1,3-2.38,2.78,2.78,0,0,1,2.07.8A2.61,2.61,0,0,1,323.75,166.4Zm1.69,42.1a2.27,2.27,0,0,1-.76,1.77,2.56,2.56,0,0,1-1.77.69c-1.47,0-2.44-1-2.92-3.07a42.19,42.19,0,0,1-.72-9v-4.27q0-2.1.09-4.26,0-3.08-.09-6.07t-.17-5.84a2.73,2.73,0,0,1,.93-1.92,3,3,0,0,1,2.2-.92,1.68,1.68,0,0,1,1.65,1,7.13,7.13,0,0,1,.47,3c0,.67,0,1.28-.05,1.84s0,1.06,0,1.46q0,3-.09,9.68c-.05,4.46-.08,7.68-.08,9.68a11,11,0,0,0,.68,3.54A10.45,10.45,0,0,1,325.44,208.5Z" />
            <path class="cls-2" d="M364,190.55c0,.46-1.85,1.29-5.6,5s-7.39,7.08-10.94,10.1q-6.35,5.37-7.94,5.37a4.71,4.71,0,0,1-4.74-2.91,15.72,15.72,0,0,1-.84-5.84q0-5,.25-11.06t.59-13.56c.23-5,.34-9.16.34-12.48a113.23,113.23,0,0,1,.51-13.72c.34-2.17.84-3.23,1.52-3.19a3.1,3.1,0,0,1,1.94.85,2.3,2.3,0,0,1,1,1.69l-.77,15q0,6.08-.42,15.44t-.42,15.29v3.3a29.78,29.78,0,0,0,.25,4.65c.17.95.54,1.42,1.1,1.42.85,0,3-1.54,6.51-4.61,2.48-2.2,5.62-5.13,9.87-8.34,4.86-3.69,6-4.39,6.28-4.51C363,188.21,364,188.4,364,190.55Z" />
            <path class="cls-2" d="M391.77,207.43a6.78,6.78,0,0,1-.29,2.22,1.19,1.19,0,0,1-1.23.85c-2,0-3.58-1.15-4.64-3.46a22.17,22.17,0,0,1-1.61-9.29q0-1.92.51-7.69c.34-3.84.5-6.17.5-7a65.39,65.39,0,0,0-4.39,7.53q-4,7.6-7.35,12.6a18.26,18.26,0,0,1-6.17,5.92,15,15,0,0,1-7.6,2.15q-5.16,0-7-3a9.84,9.84,0,0,1-1.18-5.3q0-5.76,8.95-12.91l.11-.08a69.33,69.33,0,0,1,21.78-11.28q2.28-5,2.54-5.54a48.9,48.9,0,0,0,2.45-7.37q1.19-7,1.85-10.76c.91-4.65,2-7,3.39-7a2.75,2.75,0,0,1,2.78,2.77q-1.93,8.15-3.29,15.44a70.74,70.74,0,0,0-1.61,11.91l1.52.46a1.94,1.94,0,0,1,1.19,1.92,1.21,1.21,0,0,1-.85,1.23l-1.94.46q-.35,2.15-.72,6.87t-.38,6.8a20.4,20.4,0,0,0,1.35,8.22A22.36,22.36,0,0,1,391.77,207.43Zm-22.3-5.92a49.87,49.87,0,0,0,4.86-7.68q2.57-4.85,5.11-9.76-3,1.23-5.92,2.69a54.24,54.24,0,0,0-8.79,5.61,36.78,36.78,0,0,0-6,6.22c-1.74,2.31-2.62,4-2.62,5a5.45,5.45,0,0,0,.55,2.92c.37.52,1.2.77,2.5.77a11.21,11.21,0,0,0,6.08-1.76A17.07,17.07,0,0,0,369.47,201.51Z" />
            <path class="cls-2" d="M404.79,166.4a2.87,2.87,0,0,1-.93,2.08,3.14,3.14,0,0,1-2.29.92,2.82,2.82,0,0,1-2.7-3.3,2.71,2.71,0,0,1,3.05-2.38,2.76,2.76,0,0,1,2.06.8A2.58,2.58,0,0,1,404.79,166.4Zm1.69,42.1a2.31,2.31,0,0,1-.76,1.77,2.57,2.57,0,0,1-1.78.69c-1.46,0-2.43-1-2.91-3.07a42.19,42.19,0,0,1-.72-9v-4.27c0-1.4,0-2.82.08-4.26q0-3.08-.08-6.07t-.17-5.84a2.73,2.73,0,0,1,.93-1.92,3,3,0,0,1,2.2-.92,1.67,1.67,0,0,1,1.64,1,7.13,7.13,0,0,1,.47,3c0,.67,0,1.28,0,1.84s0,1.06,0,1.46c0,2,0,5.23-.08,9.68s-.09,7.68-.09,9.68a11.29,11.29,0,0,0,.68,3.54A10.6,10.6,0,0,1,406.48,208.5Z" />
            <path class="cls-2" d="M440.53,177.93q0,3.91.34,7.91a102,102,0,0,0,1.52,10.22,32.24,32.24,0,0,0,2,6q2.86,6.52,2.87,6.61a2.57,2.57,0,0,1-.8,1.42,2.49,2.49,0,0,1-1.73.57c-.91,0-2.13-1.48-3.68-4.45a34.8,34.8,0,0,1-3.25-8.65,90.68,90.68,0,0,1-1.52-9.25c-.4-3.38-.68-5.77-.85-7.15q-1.09,2.31-3.55,8T428,198.21q-1.86,4.6-3.71,9.22c-1.41,2.81-2.91,4.22-4.48,4.22a2.14,2.14,0,0,1-2.07-1.46,17.35,17.35,0,0,1-1-4.88q-.35-3.42-.81-12.9t-.46-13.18c0-.92,0-1.87-.09-2.84s-.11-1.95-.17-2.92a9.64,9.64,0,0,1,.43-3.3,1.7,1.7,0,0,1,1.77-1.08c1.41,0,2.17.53,2.28,1.58a40.83,40.83,0,0,1,.17,4.34q0,3.08.34,8.83.84,14.37.85,18.21c.5-1,1.59-3.39,3.25-7.26s4.21-9.67,7.65-17.4a22.05,22.05,0,0,1,2.32-4.42,3,3,0,0,1,2.24-1.19c1.69,0,2.82.49,3.38,1.46a7.1,7.1,0,0,1,.59,3.38Z" />
            <path class="cls-2" d="M484.22,182.92q0,3.77.21,12.41t.21,11.4q0,14.91-3.93,23.51T471,238.85q-3.21,0-9.88-4.38-7.09-4.69-7.1-7.76a1.16,1.16,0,0,1,.47-.81,1.33,1.33,0,0,1,.88-.42q4.74,3.84,8.71,6.68,4.39,3.15,7.09,3.15,4.74,0,7-10a84,84,0,0,0,1.69-18.2c0-3.23-.07-6.54-.21-10s-.3-7.13-.47-11.18c-1.8,2.15-3.58,4.3-5.32,6.46a86.8,86.8,0,0,1-10.06,10.14q-6.33,5.22-10.65,5.22a4.46,4.46,0,0,1-4.26-2.19,11.64,11.64,0,0,1-1.23-5.72q0-2.7,2.87-6.76a74.87,74.87,0,0,1,10.57-11.37,44,44,0,0,1,6-3.92c3.38-1.95,5.91-3.07,7.6-3.38,1.3-.31,2.48-.6,3.55-.88a11.31,11.31,0,0,1,2.79-.43c1.58,0,2.56,1.64,3,4.92C484.16,179.1,484.22,180.72,484.22,182.92Zm-6.51-1.69a4,4,0,0,0,.17-.85,1.16,1.16,0,0,0-.76-1.11,4.91,4.91,0,0,0-1.61-.42q-1.35,0-5,2a51.74,51.74,0,0,0-6.89,4.45,46.16,46.16,0,0,0-8,8.22c-2.42,3.13-3.63,5.17-3.63,6.15-.06.82-.08,1.43-.08,1.84a2.09,2.09,0,0,0,.38,1.38,2.12,2.12,0,0,0,1.65.46q3.12,0,9.63-6.22A152.87,152.87,0,0,0,477.71,181.23Z" />
            <path class="cls-2" d="M530.61,160.18a24.1,24.1,0,0,1-.26,3.23,54.52,54.52,0,0,0-.59,6.53q0,7.06-.17,12.9t-.34,14V200a26.29,26.29,0,0,0,.17,3,16.72,16.72,0,0,0,.43,3.53,16.28,16.28,0,0,1,.42,2.77c0,1.23-.71,1.84-2.11,1.84s-2.23-1.66-2.79-5a83.42,83.42,0,0,1-.85-13.29q0-5.69.42-15.9t.43-12.68a28.17,28.17,0,0,1,.46-6.18c.31-1.2,1-1.81,2-1.81Q530.61,156.26,530.61,160.18Z" />
            <path class="cls-2" d="M578.18,159.49c0,.67-1.1,1.11-3.3,1.35a78.84,78.84,0,0,1-8,.34,60.21,60.21,0,0,0-8.88.58l-7.64,1.11q-3.76.54-6.3,1-7,1.31-7.69,1.31a2.75,2.75,0,0,1-1.94-.93,2.58,2.58,0,0,1-.93-1.76q0-1,1.35-1.62a29.79,29.79,0,0,1,6-1.38q8.28-1.38,10.39-1.69a116.25,116.25,0,0,1,16.56-1.15h1.86c.62,0,1.27,0,2-.08a17.82,17.82,0,0,1,5.07.54A2,2,0,0,1,578.18,159.49ZM558.32,164q0,1.23-1.1,13.06c-.39,4.25-.59,7.56-.59,9.91q0,12.75.34,17.17t.59,7.11a2.51,2.51,0,0,1-.76,1.84,3.23,3.23,0,0,1-2.37.77c-1.12,0-1.88-1.3-2.28-3.88a78,78,0,0,1-.59-10.95v-5.26c0-1.77,0-3.52.09-5.26q0-10.83.63-18.32c.42-5,1.34-7.62,2.74-7.88a4,4,0,0,1,2.2.35C558,163,558.32,163.46,558.32,164Z" />
        </g>
    </g>
</svg>