<?xml version="1.0" standalone="no"?>
<!DOCTYPE svg PUBLIC "-//W3C//DTD SVG 20010904//EN" "http://www.w3.org/TR/2001/REC-SVG-20010904/DTD/svg10.dtd">
<svg version="1.0" xmlns="http://www.w3.org/2000/svg" width="1135.000000pt" height="1280.000000pt" viewBox="0 0 1135.000000 1280.000000" preserveAspectRatio="xMidYMid meet">
    <metadata>
Created by potrace 1.15, written by Peter Selinger 2001-2017
</metadata>
    <g transform="translate(0.000000,1280.000000) scale(0.100000,-0.100000)" fill="#000000" stroke="none">
        <path fill="#AD764A" d="M6349 12730 c-54 -75 -79 -95 -149 -125 -25 -10 -46 -20 -47 -20 -2
-1 -14 -64 -28 -141 -14 -76 -35 -169 -46 -207 -20 -67 -20 -68 0 -145 28
-112 71 -225 90 -239 9 -7 21 -17 27 -22 7 -5 17 -39 23 -75 10 -59 10 -70 -8
-103 -53 -104 -253 -212 -548 -297 -230 -67 -209 -52 -281 -196 -81 -163 -108
-249 -138 -450 -14 -91 -42 -239 -64 -330 -65 -272 -115 -663 -99 -776 19
-136 30 -165 79 -202 24 -19 52 -47 61 -62 10 -15 56 -51 103 -79 l86 -52 0
-48 c0 -27 -14 -93 -30 -147 -31 -98 -57 -277 -80 -534 -12 -128 -22 -170 -40
-170 -6 0 -90 -30 -188 -66 -319 -119 -447 -199 -658 -409 -125 -124 -186
-199 -224 -274 -28 -56 -164 -414 -184 -483 -17 -58 -86 -439 -110 -608 -40
-278 -59 -763 -49 -1287 l6 -353 48 0 c38 0 51 -4 59 -19 7 -15 20 -20 49 -19
21 0 75 -8 120 -17 95 -21 82 -2 154 -215 54 -161 72 -248 92 -440 21 -202 25
-229 42 -245 13 -13 12 -15 -2 -15 -26 0 -43 -58 -50 -180 l-6 -115 65 -142
c78 -170 121 -298 139 -414 l14 -86 -29 -11 c-32 -12 -52 -52 -63 -124 -6 -37
-14 -53 -39 -71 -83 -64 -154 -85 -416 -122 -174 -24 -176 -24 -388 -10 -265
18 -345 28 -535 66 -213 42 -498 58 -589 33 -24 -7 -42 33 -74 160 l-26 106
-37 0 c-20 0 -41 -4 -48 -8 -8 -5 -14 -70 -19 -199 l-7 -191 -36 -24 c-27 -17
-50 -49 -93 -133 -66 -128 -68 -135 -109 -320 -40 -183 -43 -196 -92 -292 -39
-78 -44 -83 -73 -83 -44 0 -165 -38 -186 -58 -11 -11 -40 -106 -77 -252 -33
-129 -69 -262 -80 -294 -12 -33 -21 -68 -21 -79 0 -18 -5 -19 -46 -13 -45 6
-278 21 -479 30 -98 5 -99 5 -60 -10 22 -8 132 -33 245 -55 113 -22 250 -49
305 -60 108 -22 399 -104 615 -173 161 -52 242 -60 445 -46 186 14 180 11 144
64 -16 24 -38 46 -49 49 -12 3 -20 14 -20 26 0 26 -20 36 -105 50 -38 7 -105
21 -148 33 -75 20 -78 20 -91 2 -11 -15 -37 -20 -145 -28 -122 -9 -131 -11
-131 -30 0 -46 -14 -47 -70 -4 -74 55 -97 63 -224 82 -60 9 -115 21 -123 27
-10 9 -3 30 39 108 88 165 127 228 160 262 49 49 164 121 243 151 39 15 115
45 170 66 55 22 142 67 194 101 110 72 138 82 158 56 19 -27 71 -167 84 -227
18 -82 6 -211 -26 -292 -38 -96 -33 -150 25 -248 24 -40 61 -105 83 -144 42
-77 53 -84 139 -84 53 0 57 18 20 98 -38 82 -56 160 -50 221 4 36 18 67 65
136 78 117 107 173 163 325 l47 125 39 0 c30 0 41 -5 50 -24 16 -31 32 -41 71
-41 20 0 37 -7 46 -20 10 -15 33 -22 90 -30 43 -6 93 -18 111 -25 19 -8 97
-28 173 -45 78 -18 155 -41 179 -55 79 -46 178 -175 213 -277 l20 -58 -72 6
-73 7 -32 -37 c-18 -20 -32 -43 -32 -51 0 -41 76 -67 223 -79 27 -2 55 -10 63
-17 24 -24 54 -121 43 -141 -20 -37 -182 -53 -249 -25 l-35 15 40 7 c131 21
142 34 58 65 -136 51 -202 48 -188 -8 5 -21 3 -23 -12 -18 -137 53 -292 65
-520 42 -126 -13 -172 -22 -211 -41 -34 -16 -49 -30 -48 -42 1 -13 -21 -25
-94 -53 l-95 -35 71 -3 c39 -2 97 1 130 7 55 8 616 -16 789 -35 113 -12 204
-43 364 -123 94 -47 182 -84 213 -90 29 -5 54 -8 56 -6 2 1 -25 22 -58 46 -96
69 -113 84 -109 101 3 13 32 2 149 -54 142 -68 148 -70 285 -89 77 -10 165
-26 195 -35 73 -22 186 -30 206 -13 22 18 224 11 441 -17 l42 -5 -10 28 c-22
62 -178 148 -343 190 -112 28 -118 39 -25 42 49 1 97 19 138 49 l35 26 -50 23
c-64 29 -153 48 -344 73 -85 11 -170 24 -189 30 -62 17 -311 24 -356 8 -37
-12 -41 -17 -51 -63 l-11 -50 -21 70 c-35 118 -35 118 -10 141 13 12 45 30 72
40 27 10 64 33 82 50 34 31 34 32 34 118 0 48 -7 167 -16 263 -12 131 -13 186
-5 217 6 23 15 93 21 156 15 156 42 248 77 261 20 8 30 6 42 -5 13 -14 14 -31
3 -138 -7 -68 -12 -139 -12 -160 0 -40 -15 -32 215 -117 l80 -30 -137 -1 c-75
0 -144 -3 -153 -6 -9 -4 -21 -17 -26 -30 -6 -17 -16 -24 -36 -24 -38 0 -19
-14 47 -35 30 -10 67 -24 82 -31 28 -14 309 -43 433 -45 108 -1 128 -17 23
-18 -80 -1 -88 -3 -88 -20 0 -24 11 -27 120 -41 138 -16 368 -59 465 -85 125
-34 497 -116 502 -111 5 4 -56 33 -142 68 -27 10 -88 28 -135 39 -122 29 -150
39 -150 55 0 10 12 14 37 14 45 0 35 11 -32 35 -27 10 -54 22 -60 26 -22 21
237 1 397 -30 130 -25 252 -37 498 -51 194 -11 357 -33 374 -50 15 -15 -53
-41 -167 -61 -111 -21 -137 -31 -137 -53 0 -9 51 -11 205 -8 311 7 720 -23
930 -67 50 -11 119 -22 155 -26 36 -3 83 -8 105 -11 l40 -6 -35 30 c-31 26
-33 31 -20 47 15 18 13 21 -36 51 -27 16 -11 29 68 54 40 12 95 35 121 52 128
77 308 75 552 -6 102 -34 285 -49 620 -50 349 -1 379 2 407 50 12 20 28 34 39
34 29 0 23 28 -9 44 -16 8 -73 26 -127 40 -53 13 -102 29 -107 34 -6 6 84 12
254 15 280 5 348 15 348 48 0 23 -72 61 -150 79 -68 16 -130 40 -130 50 0 17
-70 31 -200 41 -214 15 -291 27 -304 45 -11 15 -20 15 -113 0 -125 -20 -160
-20 -179 -1 -36 35 -200 4 -399 -75 l-80 -32 -304 11 c-167 6 -307 8 -312 6
-4 -3 -11 -31 -15 -63 -11 -96 -18 -101 -39 -34 -15 50 -28 71 -76 116 -69 66
-82 102 -98 277 -6 64 -22 153 -36 199 -35 116 -32 212 16 620 22 195 40 279
76 360 15 34 31 106 44 195 24 163 55 296 104 436 57 164 92 292 196 723 98
406 117 466 177 559 17 27 43 83 58 125 15 43 28 78 29 79 0 1 35 -9 77 -22
69 -22 197 -41 402 -60 l69 -7 -6 47 c-6 56 -28 81 -132 152 -62 43 -155 143
-186 199 -10 19 -6 27 40 71 l51 49 0 67 c0 36 -9 146 -21 244 -16 135 -20
209 -15 307 4 101 1 156 -14 250 -65 414 -84 598 -69 686 11 66 13 239 3 318
-6 49 -17 71 -80 164 -41 58 -83 126 -93 151 -18 43 -63 228 -57 234 2 2 95
-6 207 -17 202 -21 205 -22 304 -67 l100 -46 111 26 c62 14 138 36 169 49 52
21 61 29 101 95 48 79 78 160 93 249 11 64 9 70 -67 204 -52 92 -133 308 -157
420 -13 58 -29 166 -35 240 -6 74 -13 142 -16 150 -2 8 -13 112 -24 230 -21
232 -47 357 -77 373 -10 6 -47 40 -83 78 -36 37 -75 72 -87 79 -23 11 -23 13
-23 228 0 195 -12 343 -36 442 -6 25 -6 25 -17 4 -7 -11 -41 -57 -77 -102 -36
-44 -88 -123 -115 -174 l-50 -93 -140 3 c-113 3 -149 0 -185 -13 -25 -9 -66
-23 -91 -30 -42 -11 -49 -11 -66 6 -10 10 -93 59 -186 108 l-167 89 0 -38 c0
-21 5 -51 11 -67 6 -15 20 -59 30 -97 28 -98 48 -132 104 -174 67 -50 66 -70
-5 -119 -46 -32 -64 -54 -107 -133 -36 -65 -59 -96 -73 -98 -11 -2 -20 -1 -20
3 0 46 -57 370 -75 428 -14 43 -25 98 -25 123 0 126 -48 378 -98 514 -11 30
-27 93 -35 140 -9 51 -27 110 -45 145 l-30 60 -139 59 c-196 84 -381 179 -431
221 -39 34 -42 40 -42 87 0 37 8 64 29 102 44 77 50 111 66 371 8 132 22 334
31 448 9 114 14 210 11 213 -11 11 -261 84 -320 94 -34 5 -113 10 -174 10
l-113 0 -51 -70z m2344 -4380 c109 -81 131 -102 152 -145 42 -88 42 -95 1 -95
-53 0 -185 19 -242 35 -37 11 -54 21 -62 40 -6 14 -17 25 -23 25 -8 0 -10 15
-6 48 8 71 38 193 46 190 3 -2 64 -46 134 -98z m-120 -255 c20 -14 63 -30 94
-36 99 -17 103 -18 103 -40 0 -15 -5 -19 -17 -16 -10 3 -49 10 -88 17 -108 17
-114 19 -135 40 -22 22 -27 60 -7 60 7 0 29 -11 50 -25z m-3391 -2631 c6 -13
19 -26 30 -30 38 -12 103 -175 157 -396 77 -312 89 -448 50 -574 -26 -85 -136
-306 -158 -318 -9 -5 -36 -31 -61 -56 -25 -26 -72 -69 -105 -96 -33 -27 -94
-79 -136 -116 l-76 -67 -29 122 c-24 102 -29 142 -28 242 1 194 76 596 140
755 43 106 140 429 149 496 4 27 8 54 10 61 6 18 46 3 57 -23z m1262 -526 c8
-24 23 -104 31 -178 21 -179 43 -248 109 -351 44 -68 66 -119 114 -264 75
-227 118 -336 197 -503 l64 -132 -9 -118 c-5 -64 -10 -159 -10 -211 l0 -94
-69 -92 c-38 -51 -90 -109 -115 -130 -26 -21 -49 -47 -52 -59 -5 -19 -18 -24
-115 -40 -65 -11 -118 -26 -132 -36 -12 -10 -30 -41 -41 -69 -15 -43 -21 -50
-39 -46 -111 22 -177 12 -231 -36 -46 -40 -60 -102 -61 -264 0 -121 2 -134 27
-187 22 -48 31 -58 52 -58 42 0 115 33 207 93 93 60 121 98 135 185 l7 42 73
0 c84 0 81 -3 153 135 43 82 197 278 276 351 25 22 45 45 45 50 0 5 13 18 29
27 17 10 32 26 36 36 3 10 23 31 45 45 22 14 52 45 67 68 27 41 28 45 27 182
0 78 -6 166 -12 196 -35 159 -42 513 -17 807 8 100 19 204 25 230 15 80 50
163 87 204 l34 38 90 0 90 0 26 -42 c56 -87 101 -442 74 -582 -7 -33 -18 -190
-26 -350 -8 -159 -17 -324 -21 -365 -3 -41 -7 -255 -8 -475 -3 -514 -18 -630
-114 -875 -36 -92 -37 -99 -36 -217 1 -81 5 -127 13 -137 7 -8 31 -16 54 -18
l42 -3 -2 -69 c-3 -92 -27 -140 -71 -144 -18 -2 -124 15 -235 37 -111 22 -249
45 -307 51 -107 10 -501 24 -1056 36 l-311 7 -6 -32 c-6 -31 -65 -79 -77 -63
-3 4 -16 39 -28 78 -22 70 -40 96 -102 143 -46 35 -67 85 -78 193 -6 53 -16
106 -22 117 -10 20 -8 21 27 21 45 0 123 42 171 92 l32 34 -14 43 c-9 23 -35
68 -60 100 -40 52 -67 79 -133 132 -12 10 -31 50 -44 94 -17 57 -29 81 -48 93
-14 9 -27 17 -29 18 -2 1 4 58 13 125 21 165 78 446 110 539 38 112 141 320
179 360 18 19 47 55 66 80 18 25 115 126 215 225 100 99 190 195 199 213 9 18
41 69 70 115 86 132 223 402 311 615 12 28 18 32 54 32 37 0 40 -2 55 -42z
m-1558 -1684 c-7 -18 -26 -18 -26 0 0 8 5 27 12 43 l12 28 4 -28 c2 -16 1 -35
-2 -43z m48 -192 c26 -119 30 -176 12 -191 -9 -8 -26 -11 -40 -7 -36 9 -50 62
-42 158 12 148 42 165 70 40z m47 -899 c9 -10 16 -56 20 -136 4 -103 8 -122
24 -131 40 -23 53 -45 60 -101 5 -44 3 -60 -7 -66 -27 -18 -44 -7 -77 47 -18
30 -39 58 -47 61 -37 14 -82 151 -62 187 5 9 13 41 18 72 13 80 40 105 71 67z
m-698 -787 c26 -26 107 -172 113 -204 21 -103 -65 -124 -97 -23 -6 20 -15 41
-19 46 -14 19 -50 139 -50 167 0 21 5 28 19 28 11 0 26 -6 34 -14z m3317 -167
c0 -18 -2 -19 -15 -9 -15 12 -12 30 6 30 5 0 9 -10 9 -21z m-3300 -621 c0 -10
-5 -18 -12 -18 -26 0 -164 43 -177 55 -30 29 1 31 94 7 77 -20 95 -29 95 -44z" />
        <path d="M6225 3380 c-5 -15 1 -67 16 -139 4 -17 17 62 18 107 1 39 -3 52 -13
52 -8 0 -17 -9 -21 -20z" />
        <path d="M6150 3322 c0 -60 7 -82 26 -82 25 0 12 119 -14 128 -8 2 -12 -11
-12 -46z" />
        <path d="M6050 3301 c0 -24 8 -48 20 -62 l19 -24 1 33 c0 30 -24 92 -35 92 -3
0 -5 -18 -5 -39z" />
        <path d="M6368 3294 c5 -25 53 -64 80 -64 25 0 7 44 -27 67 -45 30 -59 30 -53
-3z" />
        <path d="M5800 3275 c0 -26 30 -45 71 -45 25 0 24 12 -6 44 -32 34 -65 35 -65
1z" />
        <path d="M5532 3205 c4 -4 26 -11 48 -15 23 -4 38 -4 33 0 -10 11 -90 25 -81
15z" />
        <path d="M6080 2946 c0 -2 9 -6 20 -9 11 -3 18 -1 14 4 -5 9 -34 13 -34 5z" />
        <path d="M7443 2580 c0 -25 2 -35 4 -22 2 12 2 32 0 45 -2 12 -4 2 -4 -23z" />
        <path d="M7513 2570 c-8 -28 -9 -48 -3 -54 16 -16 21 -1 18 50 l-3 49 -12 -45z" />
        <path d="M6955 1641 c-13 -5 12 -12 80 -20 55 -7 125 -19 155 -26 97 -24 206
-33 240 -19 16 7 30 16 30 19 0 35 -433 74 -505 46z" />
        <path d="M2258 4194 c-55 -23 -59 -63 -7 -79 33 -11 21 -25 -43 -54 -101 -45
-190 -63 -563 -114 -154 -21 -160 -23 -163 -46 -3 -22 -1 -23 30 -18 18 4 116
16 217 27 102 12 193 26 202 31 10 5 50 9 90 9 59 0 77 4 94 20 12 11 47 25
78 30 31 6 73 18 92 26 19 8 68 21 107 29 51 11 81 24 100 42 l27 26 -34 22
c-18 13 -58 28 -89 35 -31 6 -58 16 -61 21 -9 13 -34 10 -77 -7z" />
        <path d="M800 3850 l-35 -19 73 -1 c65 0 73 2 70 18 -5 25 -65 26 -108 2z" />
        <path d="M1028 3858 c-32 -6 -58 -14 -58 -19 0 -10 153 -12 163 -2 10 10 -13
33 -32 32 -9 -1 -42 -6 -73 -11z" />
        <path d="M628 3833 c12 -2 32 -2 45 0 12 2 2 4 -23 4 -25 0 -35 -2 -22 -4z" />
        <path d="M3948 3340 c-20 -51 -23 -80 -8 -80 13 0 33 70 28 100 -3 22 -5 19
-20 -20z" />
        <path d="M3455 3329 c-4 -17 -5 -33 -2 -36 11 -10 27 9 27 32 0 36 -17 39 -25
4z" />
        <path d="M3250 3318 c0 -8 5 -19 12 -26 20 -20 40 -14 36 11 -3 25 -48 39 -48
15z" />
        <path d="M3530 3305 c0 -10 10 -15 33 -15 30 1 31 1 13 15 -25 19 -46 19 -46
0z" />
        <path d="M4206 3294 c-8 -29 -3 -39 13 -29 13 8 15 55 2 55 -5 0 -12 -12 -15
-26z" />
        <path d="M10 3033 l0 -38 95 3 c53 2 128 -2 168 -9 97 -16 109 -16 114 -2 3 7
-12 16 -34 22 -32 8 -324 61 -338 61 -3 0 -5 -17 -5 -37z" />
        <path d="M1124 3053 c-15 -15 -44 -73 -44 -88 0 -6 23 -7 178 -7 76 0 102 11
102 42 0 20 -35 34 -112 45 -26 3 -50 10 -53 16 -10 15 -52 10 -71 -8z" />
        <path d="M600 3037 c0 -37 73 -82 116 -71 53 13 4 70 -69 80 -39 6 -47 4 -47
-9z" />
        <path d="M512 3009 c3 -23 53 -67 64 -56 9 9 -22 54 -47 67 -18 10 -20 9 -17
-11z" />
        <path d="M1553 3010 c-26 -11 -31 -30 -8 -30 17 0 75 27 75 35 0 8 -43 4 -67
-5z" />
        <path d="M10720 2884 c-17 -15 -37 -39 -45 -55 -19 -35 -20 -73 -2 -62 13 8
56 13 156 16 52 2 66 6 78 23 20 32 -8 58 -54 51 -28 -5 -33 -3 -33 13 0 20
-27 40 -54 40 -8 0 -28 -12 -46 -26z" />
        <path d="M8856 2703 c-9 -26 -16 -48 -16 -50 0 -2 34 -3 75 -3 87 0 93 9 44
65 -22 24 -40 35 -59 35 -25 0 -30 -6 -44 -47z" />
        <path d="M8644 2698 c3 -7 7 -25 10 -39 6 -29 27 -42 51 -33 22 9 18 23 -16
55 -33 31 -51 37 -45 17z" />
        <path d="M8497 2668 c20 -34 67 -67 78 -56 18 18 -45 87 -78 88 -18 0 -18 -1
0 -32z" />
        <path d="M8395 2668 c7 -22 72 -87 88 -88 24 -1 -36 80 -75 101 -18 10 -19 8
-13 -13z" />
        <path d="M0 2666 c0 -9 7 -16 16 -16 17 0 14 22 -4 28 -7 2 -12 -3 -12 -12z" />
        <path d="M1113 2673 c-33 -7 -28 -19 18 -49 35 -22 46 -24 66 -15 13 6 43 11
66 11 l42 0 -27 27 c-22 22 -37 27 -85 29 -32 1 -68 0 -80 -3z" />
        <path d="M8110 2645 c0 -8 18 -22 39 -31 22 -9 50 -30 62 -49 22 -31 73 -53
84 -35 2 4 -12 26 -32 50 -52 60 -153 103 -153 65z" />
        <path d="M8290 2635 c22 -23 89 -65 105 -65 8 0 -22 55 -37 67 -7 6 -31 14
-53 18 l-40 8 25 -28z" />
        <path d="M9170 2641 c0 -11 5 -23 10 -26 6 -3 10 3 10 14 0 11 -4 23 -10 26
-5 3 -10 -3 -10 -14z" />
        <path d="M1415 2630 c3 -5 16 -10 28 -9 21 0 21 1 2 9 -28 12 -37 12 -30 0z" />
        <path d="M8010 2606 c0 -29 39 -82 40 -53 0 18 -27 77 -35 77 -3 0 -5 -11 -5
-24z" />
        <path d="M9410 2590 c0 -16 2 -30 4 -30 2 0 11 -3 20 -6 13 -5 16 1 16 30 0
29 -4 36 -20 36 -16 0 -20 -7 -20 -30z" />
        <path d="M770 2560 c20 -13 33 -13 25 0 -3 6 -14 10 -23 10 -15 0 -15 -2 -2
-10z" />
        <path d="M9725 2516 c22 -13 51 -27 65 -30 24 -7 23 -6 -8 23 -22 22 -42 31
-65 31 l-32 0 40 -24z" />
        <path d="M9840 2536 c0 -2 9 -6 20 -9 11 -3 18 -1 14 4 -5 9 -34 13 -34 5z" />
        <path d="M9280 2345 c31 -18 73 -20 68 -2 -3 6 -24 13 -49 15 -43 2 -43 2 -19
-13z" />
        <path d="M9174 2284 c3 -9 6 -18 6 -20 0 -3 5 -2 10 1 16 10 12 35 -6 35 -11
0 -14 -5 -10 -16z" />
        <path d="M10219 2021 c-16 -16 -29 -34 -29 -39 0 -18 38 -43 74 -49 30 -5 36
-3 36 12 0 16 8 17 84 11 80 -7 85 -6 100 16 22 31 20 38 -10 38 -15 0 -34 10
-44 22 -17 22 -21 22 -76 10 -38 -8 -62 -8 -68 -2 -17 17 -36 11 -67 -19z" />
        <path d="M250 2026 c0 -14 43 -73 65 -88 5 -4 25 -8 43 -8 30 0 33 2 27 23 -4
12 -15 36 -24 52 -15 26 -24 30 -64 33 -36 2 -47 0 -47 -12z" />
        <path d="M410 2012 c0 -15 25 -38 53 -50 34 -15 36 0 2 33 -23 24 -55 34 -55
17z" />
        <path d="M0 1976 c0 -24 3 -26 50 -27 28 -1 56 -2 62 -3 7 -1 14 6 16 16 3 18
-9 23 -80 33 -46 6 -48 5 -48 -19z" />
        <path d="M8350 1735 c-12 -15 -10 -16 21 -13 37 3 46 21 13 26 -11 2 -27 -4
-34 -13z" />
        <path d="M8870 1701 c-60 -19 -100 -41 -100 -55 0 -11 89 3 120 19 14 8 54 23
90 33 l65 20 -60 0 c-33 1 -85 -7 -115 -17z" />
        <path d="M11064 1583 c14 -29 66 -82 66 -69 0 16 -32 81 -43 88 -28 18 -38 9
-23 -19z" />
        <path d="M11200 1585 c0 -16 9 -41 20 -55 l20 -25 0 25 c0 14 -9 39 -20 55
l-20 30 0 -30z" />
        <path d="M11290 1547 c0 -20 6 -28 25 -33 37 -9 39 -1 5 31 l-30 29 0 -27z" />
        <path d="M605 1465 c28 -13 73 -28 100 -34 75 -15 201 -23 190 -12 -17 15
-250 71 -296 70 l-44 -1 50 -23z" />
        <path d="M10913 1443 c3 -5 46 -28 96 -52 85 -42 91 -44 109 -28 10 9 28 17
40 17 27 0 36 14 18 30 -27 22 -275 53 -263 33z" />
        <path d="M10730 1421 c0 -5 14 -19 30 -31 l30 -21 0 30 c0 28 -3 31 -30 31
-16 0 -30 -4 -30 -9z" />
        <path d="M6450 1202 c-118 -46 21 -66 158 -24 39 12 72 27 72 32 0 18 -180 11
-230 -8z" />
        <path d="M4690 1190 c0 -13 28 -26 73 -33 48 -7 47 -1 -5 23 -48 22 -68 25
-68 10z" />
        <path d="M7130 986 c0 -7 376 -124 453 -140 50 -11 28 10 -50 47 -98 46 -280
97 -350 97 -29 0 -53 -2 -53 -4z" />
        <path d="M7094 872 c4 -7 14 -12 22 -12 41 0 239 -87 617 -270 61 -30 91 -40
98 -33 16 16 -23 47 -152 118 -214 119 -387 184 -533 201 -44 5 -57 4 -52 -4z" />
        <path d="M6735 775 c46 -37 185 -105 226 -110 l44 -7 -45 27 c-81 48 -174 92
-210 99 -33 7 -34 6 -15 -9z" />
        <path d="M5976 702 c12 -9 29 -29 38 -44 14 -22 27 -27 79 -33 89 -10 156 -36
292 -114 115 -66 190 -99 155 -69 -146 124 -452 278 -552 278 -33 0 -33 -1
-12 -18z" />
        <path d="M5696 692 c-9 -15 14 -29 59 -37 22 -4 67 -21 100 -39 56 -29 300
-218 424 -328 51 -45 81 -59 81 -40 0 20 -294 275 -395 343 -90 61 -255 123
-269 101z" />
        <path d="M7869 652 c16 -30 190 -192 206 -192 25 0 3 32 -88 126 -56 57 -89
84 -105 84 -19 0 -21 -3 -13 -18z" />
        <path d="M8042 641 c5 -13 107 -103 157 -139 44 -32 71 -40 71 -22 0 17 -88
93 -152 133 -61 37 -83 45 -76 28z" />
        <path d="M5665 553 c167 -102 285 -166 291 -160 7 7 -52 50 -198 146 -104 68
-136 84 -175 88 l-48 5 130 -79z" />
        <path d="M2715 580 c-10 -16 19 -22 48 -11 15 6 27 13 27 16 0 10 -69 5 -75
-5z" />
        <path d="M3202 514 c-227 -35 -225 -45 8 -41 172 2 200 5 240 24 l45 20 -28
12 c-39 15 -88 13 -265 -15z" />
        <path d="M8508 374 c-4 -3 -5 -19 -2 -34 4 -18 1 -29 -8 -32 -7 -3 -58 1 -113
8 -55 7 -101 11 -103 9 -2 -2 10 -11 27 -20 17 -8 31 -20 31 -25 0 -18 41 -30
172 -50 73 -11 169 -26 212 -35 101 -19 156 -22 165 -6 6 9 21 8 66 -4 78 -20
171 -20 179 0 4 11 21 15 58 16 l53 1 -80 39 c-143 70 -232 83 -256 38 -5 -11
-16 -19 -23 -19 -8 0 -63 22 -123 49 -61 27 -130 52 -154 55 -24 4 -55 9 -69
12 -14 3 -29 2 -32 -2z" />
        <path d="M5470 286 c0 -22 460 -169 476 -153 7 6 -171 72 -298 111 -128 38
-178 50 -178 42z" />
        <path d="M8190 240 c-10 -19 -8 -20 62 -19 l73 0 -40 19 c-53 25 -82 25 -95 0z" />
        <path d="M6940 189 c30 -28 59 -54 63 -57 4 -4 14 -16 21 -26 10 -15 17 -17
31 -9 17 10 16 13 -11 38 -58 55 -126 105 -142 105 -11 0 3 -19 38 -51z" />
        <path d="M9355 219 c53 -24 78 -24 40 1 -16 11 -41 20 -55 19 -22 -1 -20 -3
15 -20z" />
        <path d="M9535 192 c12 -11 72 -32 94 -32 33 0 -14 28 -59 35 -29 5 -41 4 -35
-3z" />
        <path d="M7925 129 c44 -21 105 -45 135 -53 51 -13 57 -12 85 5 43 26 42 35
-6 60 -36 18 -62 22 -168 24 l-126 2 80 -38z" />
        <path d="M7640 122 c0 -13 62 -42 89 -42 19 0 40 25 30 34 -11 9 -119 16 -119
8z" />
        <path d="M7822 53 c3 -24 10 -30 53 -41 87 -22 97 -11 29 31 -74 45 -86 46
-82 10z" />
    </g>
</svg>